<?xml version="1.0" encoding="UTF-8"?>
<svg version="1.1" xmlns="http://www.w3.org/2000/svg" width="1563" height="1563">
<path d="M0 0 C15.18 0 30.36 0 46 0 C46 16.5 46 33 46 50 C55.1698291 49.96040482 55.1698291 49.96040482 64.33959961 49.90991211 C65.47405518 49.90741455 66.60851074 49.90491699 67.77734375 49.90234375 C69.52905884 49.89448853 69.52905884 49.89448853 71.31616211 49.88647461 C74 50 74 50 75 51 C75.10087212 53.50924153 75.13972032 55.99036384 75.1328125 58.5 C75.13376923 59.25087891 75.13472595 60.00175781 75.13571167 60.77539062 C75.13639338 62.36588627 75.13453972 63.95638467 75.13037109 65.546875 C75.12502267 67.98964655 75.13031634 70.43223421 75.13671875 72.875 C75.13605797 74.41666707 75.1347768 75.95833403 75.1328125 77.5 C75.13483673 78.23541016 75.13686096 78.97082031 75.13894653 79.72851562 C75.11495161 84.88504839 75.11495161 84.88504839 74 86 C71.92737924 86.08767112 69.85179706 86.10695873 67.77734375 86.09765625 C65.88725586 86.09282227 65.88725586 86.09282227 63.95898438 86.08789062 C62.61848891 86.07953403 61.27799412 86.07106907 59.9375 86.0625 C58.59310058 86.0574866 57.2486994 86.05292342 55.90429688 86.04882812 C52.60282059 86.03699488 49.30143197 86.02050971 46 86 C46.09442094 91.7619804 46.20069758 97.52358363 46.31738281 103.28515625 C46.35537561 105.24017548 46.39027689 107.19525758 46.421875 109.15039062 C45.83254564 126.94761297 45.83254564 126.94761297 51.125 143.3125 C54.38796787 145.22772027 56.305907 145.2594842 59.99609375 144.53125 C62.71510419 143.81042072 65.36616232 142.98768913 68 142 C71.25737716 149.68968983 73.82687741 157.51266998 76.25 165.5 C76.61351562 166.67820312 76.97703125 167.85640625 77.3515625 169.0703125 C80 177.7324953 80 177.7324953 80 180 C74.57535304 182.90453538 69.57103975 184.95177629 63.5625 186.25 C62.40113525 186.50148804 62.40113525 186.50148804 61.21630859 186.75805664 C46.18186411 189.75671333 30.42745064 189.31756396 17.25 180.72265625 C6.95502747 172.8405679 2.22733209 161.48699516 0 149 C-0.37013339 144.00862127 -0.35182589 139.0496749 -0.29296875 134.046875 C-0.28735681 132.65155499 -0.28309429 131.25622897 -0.28010559 129.86090088 C-0.26878222 126.23096704 -0.2394271 122.60140716 -0.20599365 118.97161865 C-0.1750189 115.25066178 -0.1615424 111.52964305 -0.14648438 107.80859375 C-0.11454173 100.53887421 -0.06188056 93.26953765 0 86 C-6.6 86 -13.2 86 -20 86 C-20 74.12 -20 62.24 -20 50 C-13.4 50 -6.8 50 0 50 C0 33.5 0 17 0 0 Z " fill="#231F20" transform="translate(928,665)"/>
<path d="M0 0 C-0.62363907 4.16995424 -2.0383738 7.42514447 -3.94140625 11.17578125 C-4.81635742 12.91118164 -4.81635742 12.91118164 -5.70898438 14.68164062 C-6.32669206 15.89199387 -6.94453227 17.1022795 -7.5625 18.3125 C-8.18479856 19.54203759 -8.80654918 20.77185267 -9.42773438 22.00195312 C-10.94645512 25.00407552 -12.4707102 28.00325153 -14 31 C-17.86696123 30.39828136 -21.11731666 29.66877943 -24.6875 28.0625 C-34.82174928 23.87164504 -45.52514297 22.36586593 -56 26 C-57.36636155 27.15866921 -57.36636155 27.15866921 -57.375 30.3125 C-57.36981438 33.98971929 -57.36981438 33.98971929 -55.1875 35.99609375 C-50.61598438 38.87009805 -45.76773025 40.18756613 -40.625 41.75 C-25.65220482 46.52972498 -9.9291555 52.12514843 -1.625 66.375 C3.99160753 77.57769002 4.65523807 89.99263762 1 102 C-3.49113242 113.2871479 -10.11324579 120.52255921 -21 126 C-25.59964428 127.70044255 -30.22014957 128.91910201 -35 130 C-35.9075 130.22558594 -36.815 130.45117188 -37.75 130.68359375 C-61.12745864 135.61052907 -86.41052683 131.77486435 -106.87890625 119.625 C-109.38530718 117.7048107 -111.1198949 115.5238599 -113 113 C-110.96268604 109.51826759 -108.91934471 106.04010812 -106.875 102.5625 C-106.30523438 101.58861328 -105.73546875 100.61472656 -105.1484375 99.61132812 C-101.61475185 93.60807807 -97.93853949 87.74617287 -94 82 C-91.03211127 83.46041439 -88.24394592 85.0602051 -85.4375 86.8125 C-75.19495194 93.00355127 -66.09920603 97.05756023 -54 96 C-51.45121078 94.82755696 -49.93702622 93.93702622 -48 92 C-47.44937763 87.08645241 -47.44937763 87.08645241 -49.69116211 82.9152832 C-52.15925527 80.8678907 -54.26997173 79.82121699 -57.25390625 78.66796875 C-58.2682373 78.26570068 -59.28256836 77.86343262 -60.32763672 77.44897461 C-61.3951416 77.03268799 -62.46264648 76.61640137 -63.5625 76.1875 C-77.99980783 70.34779819 -94.18921899 63.04047473 -101 48 C-102.90730098 43.22134408 -103.35235586 38.84642584 -103.3125 33.75 C-103.30686035 32.99855713 -103.3012207 32.24711426 -103.29541016 31.47290039 C-103.02698605 19.14000874 -98.7049212 11.41811969 -90 2.875 C-67.26715934 -16.66524206 -25.1202813 -13.39336865 0 0 Z " fill="#231F20" transform="translate(674,721)"/>
<path d="M0 0 C15.51 0 31.02 0 47 0 C47 73.92 47 147.84 47 224 C31.49 224 15.98 224 0 224 C0 150.08 0 76.16 0 0 Z " fill="#231F20" transform="translate(685,625)"/>
<path d="M0 0 C2.20906244 3.31359366 3.34349593 6.62755721 4.5625 10.375 C4.78357422 11.035 5.00464844 11.695 5.23242188 12.375 C9.08914311 24.07333269 10.50334694 39.04797054 5.3828125 50.578125 C-2.53057549 64.43773108 -13.38291153 69.15799301 -28.125 73.875 C-38.89349316 77.43149176 -49.19366734 81.24929532 -59 87 C-59.83144531 87.48726562 -60.66289063 87.97453125 -61.51953125 88.4765625 C-71.16948952 94.88599675 -75.08691536 106.50685112 -77.53271484 117.36499023 C-81.57433072 140.15556504 -75.17123807 164.66060489 -63 184 C-61.16961378 186.46880722 -59.29057094 188.8643166 -57.3203125 191.22265625 C-56 193 -56 193 -56 195 C-70.45759097 188.13030234 -80.29268748 171.42248818 -86 157 C-93.83968008 134.91672894 -95.5003551 111.19457423 -85.62158203 89.49707031 C-82.28592519 82.57161135 -78.1310548 76.69116995 -73 71 C-72.14728516 70.00806641 -72.14728516 70.00806641 -71.27734375 68.99609375 C-62.77752943 59.74904301 -51.07629419 52.73593806 -40 47 C-58.71752455 51.22795849 -75.27216868 63.25191048 -85.84619141 79.13720703 C-97.48963865 97.93523971 -101.48098235 119.7804239 -96.91943359 141.56982422 C-93.61226618 154.81524749 -87.88667291 166.56314138 -79.72265625 177.42578125 C-78 180 -78 180 -78 183 C-97.60252739 168.81841846 -111.51003048 150.29324163 -115.875 126.25 C-119.29871592 104.86900097 -114.87516693 82.23058034 -103 64 C-86.91911042 42.96869393 -64.13182068 34.13264958 -40.03125 25.53125 C-24.62574054 20.02578161 -9.12165143 14.47148075 0 0 Z " fill="#13BE96" transform="translate(854,653)"/>
<path d="M0 0 C16.29433562 7.4476635 28.31553921 22.66020695 35 39 C43.34258712 61.51915125 42.70889893 84.08514931 33 106 C30.95745833 109.92383005 28.64515815 113.45863836 26 117 C25.32066406 117.92296875 24.64132812 118.8459375 23.94140625 119.796875 C11.19117764 136.25171549 -6.57153504 146.37277876 -27 150 C-30.81007056 150.26101305 -34.61938705 150.27659298 -38.4375 150.3125 C-39.46166016 150.34150391 -40.48582031 150.37050781 -41.54101562 150.40039062 C-47.60091372 150.45138006 -51.22249602 150.11104966 -56 146 C-56.61746094 145.55398438 -57.23492188 145.10796875 -57.87109375 144.6484375 C-65.90030195 138.12095153 -70.72010166 129.26982589 -75 120 C-71.56160685 121.33476085 -68.25606075 122.83077602 -64.9375 124.4375 C-50.14517774 131.09502986 -34.69499514 132.33848811 -19.2109375 127.25390625 C-9.57901845 123.4925364 -2.30419469 118.29131251 5 111 C5.57621094 110.43539062 6.15242187 109.87078125 6.74609375 109.2890625 C17.47448476 97.86402272 20.98439256 82.1860372 21 67 C20.13809082 53.38183503 15.41316356 41.66297584 7 31 C6.53980469 30.37609375 6.07960938 29.7521875 5.60546875 29.109375 C1.31957882 23.6254121 -4.30015258 19.90469975 -10 16 C-8.56058464 12.96200316 -6.88346492 10.22031941 -5 7.4375 C-4.484375 6.67308594 -3.96875 5.90867187 -3.4375 5.12109375 C-2.963125 4.42113281 -2.48875 3.72117187 -2 3 C-1.34 2.01 -0.68 1.02 0 0 Z " fill="#231F20" transform="translate(866,704)"/>
</svg>
